<?xml version="1.0" standalone="no"?>
<!DOCTYPE svg PUBLIC "-//W3C//DTD SVG 20010904//EN"
 "http://www.w3.org/TR/2001/REC-SVG-20010904/DTD/svg10.dtd">
<svg version="1.0" xmlns="http://www.w3.org/2000/svg"
 width="120.000000pt" height="120.000000pt" viewBox="0 0 120.000000 120.000000"
 preserveAspectRatio="xMidYMid meet">
<metadata>
Created by potrace 1.11, written by Peter Selinger 2001-2013
</metadata>
<g transform="translate(0.000000,120.000000) scale(0.100000,-0.100000)"
fill="#000000" stroke="none">
<path d="M445 1031 c-173 -175 -195 -203 -224 -287 -63 -189 30 -400 215 -486
53 -25 82 -31 144 -34 123 -4 217 32 302 117 81 81 119 187 113 312 -6 120
-45 182 -235 373 l-160 162 -155 -157z m277 -141 c125 -129 148 -169 151 -262
2 -69 -36 -181 -40 -118 -4 45 -42 97 -159 215 -125 126 -152 160 -149 183 2
6 3 16 4 22 1 12 61 80 70 80 3 0 59 -54 123 -120z m-259 -127 l49 -52 -55
-55 c-54 -55 -87 -109 -90 -146 -2 -33 -14 -23 -26 23 -27 94 -12 186 41 257
12 17 25 29 28 28 3 -2 27 -26 53 -55z m196 -199 c28 -30 51 -61 52 -67 0 -7
2 -19 4 -28 6 -31 -31 -95 -63 -108 -46 -19 -64 -19 -100 -2 -33 15 -70 71
-66 99 1 6 2 21 3 31 1 19 96 131 111 131 4 0 31 -25 59 -56z"/>
<path d="M109 188 c-1 -2 -3 -26 -4 -53 -3 -70 -13 -95 -36 -95 -10 0 -19 -4
-19 -9 0 -36 67 -10 74 28 8 48 6 120 -4 126 -5 3 -11 5 -11 3z"/>
<path d="M150 100 l0 -90 60 0 c53 0 61 3 76 25 14 21 15 30 5 48 -6 12 -9 32
-7 45 8 36 -29 62 -86 62 l-48 0 0 -90z m106 38 c2 -18 0 -19 -48 -22 -23 -2
-28 2 -28 22 0 21 4 23 37 20 25 -2 37 -8 39 -20z m12 -75 c2 -17 -2 -23 -15
-24 -10 0 -29 -2 -41 -3 -25 -3 -38 14 -29 38 3 8 20 13 44 12 31 -1 39 -5 41
-23z"/>
<path d="M409 183 c-4 -27 -4 -150 -1 -160 5 -16 63 -17 95 -2 31 14 56 57 51
89 -6 41 -58 80 -104 80 -22 0 -40 -3 -41 -7z m93 -37 c45 -34 18 -106 -40
-106 -27 0 -28 1 -26 58 1 31 2 58 3 60 4 7 49 -1 63 -12z"/>
<path d="M917 183 c-4 -3 -7 -35 -7 -69 0 -52 4 -67 22 -84 12 -11 30 -20 40
-20 26 0 22 28 -4 32 -18 2 -24 10 -26 40 -3 32 0 37 20 40 30 4 26 22 -7 26
-20 3 -25 7 -20 23 6 18 -5 26 -18 12z"/>
<path d="M618 143 c-9 -2 -23 -18 -31 -36 -17 -33 -10 -60 22 -84 19 -14 100
-13 102 2 4 32 5 92 1 108 -3 12 -8 14 -16 8 -7 -6 -17 -6 -26 -1 -16 10 -24
11 -52 3z m57 -37 c17 -12 18 -18 7 -40 -13 -29 -43 -34 -66 -10 -19 19 -19
19 -4 44 15 23 37 25 63 6z"/>
<path d="M753 124 c-23 -35 -18 -124 6 -110 4 3 9 26 10 52 2 54 3 57 22 49 9
-3 14 -18 13 -42 -2 -43 4 -65 17 -57 5 3 9 27 9 54 0 41 3 48 16 43 12 -4 15
-17 12 -49 -2 -28 1 -45 9 -48 18 -7 24 9 22 59 -3 53 -21 68 -82 71 -30 1
-42 -4 -54 -22z"/>
<path d="M1048 133 c-15 -9 -29 -26 -32 -37 -13 -50 52 -104 94 -78 14 9 20 9
20 1 0 -8 4 -8 13 0 15 12 12 109 -4 126 -6 5 -9 5 -9 -3 0 -8 -7 -9 -26 -2
-30 12 -24 13 -56 -7z m66 -34 c18 -27 11 -47 -20 -55 -44 -11 -70 29 -38 60
21 22 40 20 58 -5z"/>
</g>
</svg>
